<?xml version="1.0" encoding="UTF-8"?>
<svg id="Layer_1" data-name="Layer 1" xmlns="http://www.w3.org/2000/svg" viewBox="0 0 383.64 72.54">
  <g>
    <g>
      <path d="M116.82,59.9c-4.21,0-7.83-.99-10.84-2.96-3.02-1.97-5.32-4.69-6.92-8.15-1.6-3.46-2.4-7.45-2.4-11.98s.85-8.64,2.56-12.07c1.71-3.44,4.11-6.11,7.22-8.02,3.1-1.91,6.74-2.86,10.91-2.86,3.73,0,7.08.86,10.08,2.59,2.99,1.73,5.25,4.21,6.75,7.45l-5.46,2c-.98-2-2.45-3.63-4.42-4.89-1.97-1.26-4.4-1.9-7.29-1.9-2.62,0-4.98.67-7.08,2-2.11,1.33-3.78,3.32-5.02,5.95-1.24,2.64-1.86,5.89-1.86,9.75s.6,6.92,1.8,9.58c1.2,2.66,2.87,4.7,5.02,6.12,2.15,1.42,4.6,2.13,7.35,2.13s5.31-.62,7.29-1.86c1.97-1.24,3.47-2.88,4.49-4.92l5.46,2c-1.6,3.28-3.95,5.78-7.05,7.48-3.1,1.71-6.63,2.56-10.58,2.56Z"/>
      <path d="M152.41,59.1V20.05h-14.77v-5.39h35.79v5.39h-14.77v39.05h-6.25Z"/>
      <path d="M179.15,59.1V14.66h14.1c3.64,0,6.84.32,9.61.96,2.77.64,4.94,1.89,6.52,3.73,1.57,1.84,2.36,4.54,2.36,8.08,0,2-.31,3.86-.93,5.59-.62,1.73-1.81,3.19-3.56,4.39-1.75,1.2-4.36,2.04-7.82,2.53l13.77,19.16h-7.65l-13.51-18.69h-6.65v18.69h-6.25ZM185.41,35.15h8.32c2.17,0,4.13-.15,5.89-.47,1.75-.31,3.15-1.01,4.19-2.1,1.04-1.09,1.56-2.76,1.56-5.02s-.52-3.99-1.56-5.06-2.44-1.76-4.19-2.1-3.71-.5-5.89-.5h-8.32v15.23Z"/>
      <path d="M220.27,59.1V14.66h6.25v39.05h23.88v5.39h-30.14Z"/>
      <path d="M253.6,45.27v-5.39h19.43v5.39h-19.43Z"/>
      <path d="M276.22,59.1l16.7-44.51h6.99l16.63,44.51h-6.65l-3.39-9.71h-20.22l-3.39,9.71h-6.65ZM288.19,44h16.37l-8.18-23.08-8.18,23.08Z"/>
      <path d="M322.25,59.1V14.66h6.25v39.05h23.88v5.39h-30.14Z"/>
      <path d="M361.57,59.1V20.05h-14.77v-5.39h35.79v5.39h-14.77v39.05h-6.25Z"/>
    </g>
    <path d="M70.63,15.02c-.36-.24-.76-.38-1.18-.4L37.54,1.31c-.61-.25-1.3-.25-1.91,0L2.99,14.68c-.28.06-.54.18-.79.34-.69.47-1.11,1.25-1.11,2.08v38.72c0,1.03.63,1.95,1.59,2.33l28.57,11.17,3.48,1.36h0s.06.08.1.1c.11.12.24.22.38.31.41.27.89.41,1.37.41.34,0,.68-.08,1-.22l32.67-14.4c.91-.4,1.49-1.3,1.49-2.29V17.1c0-.84-.42-1.62-1.11-2.08ZM36.57,6.33l8.77,3.65-25.73,10.63-9.19-3.57,26.15-10.71ZM6.09,54.11V20.83l27.99,11.47v32.76l-27.99-10.95ZM36.57,27.19l-10.21-3.96,25.49-10.53,10.41,4.34-25.69,10.15ZM66.74,52.96l-27.66,12.2v-32.87l27.66-11.45v32.12Z"/>
  </g>
  <path d="M34.83,70.78l-3.58-1.46,3.48,1.36h0s.06.08.1.1Z"/>
</svg>