<?xml version="1.0" encoding="UTF-8"?>
<svg id="Layer_1" data-name="Layer 1" xmlns="http://www.w3.org/2000/svg" viewBox="0 0 99.34 105.41">
  <defs>
    <style>
      .cls-1 {
        fill: #ed1c24;
      }

      .cls-2 {
        fill: #fff;
      }

      .cls-3 {
        fill: #06000a;
      }
    </style>
  </defs>
  <g>
    <path class="cls-3" d="M56.16,90.13c0,3.68-2.98,6.67-6.67,6.67s-6.67-2.98-6.67-6.67"/>
    <path class="cls-3" d="M56.55,24.57c0-3.9-3.16-7.06-7.06-7.06s-7.06,3.16-7.06,7.06h14.12Z"/>
    <path class="cls-3" d="M25.41,41.8v21.82c0,1.96-.78,3.84-2.17,5.23l-6.5,6.5c-2.89,2.89-2.89,7.58,0,10.47h0c1.39,1.39,3.27,2.17,5.23,2.17h53.37c1.96,0,3.84-.78,5.23-2.17l.41-.41c2.89-2.89,2.89-7.58,0-10.47l-6.35-6.35c-1.39-1.39-2.17-3.27-2.17-5.23v-19.38c0-2.33-1.1-4.52-2.96-5.92l-12.92-9.7c-1.28-.96-2.84-1.48-4.44-1.48h-11.89c-8.22,0-14.88,6.69-14.84,14.91h0Z"/>
  </g>
  <circle class="cls-1" cx="76.1" cy="23.24" r="23.24"/>
  <path class="cls-2" d="M75.52,37.85c-1.92,0-3.56-.32-4.92-.95-1.36-.63-2.44-1.48-3.25-2.54-.8-1.06-1.38-2.24-1.72-3.53l3.57-1.03c.32,1.49,1,2.7,2.04,3.63s2.49,1.4,4.32,1.4,3.45-.48,4.67-1.44c1.22-.96,1.83-2.33,1.83-4.11,0-1.09-.23-1.99-.69-2.69s-1.05-1.24-1.76-1.61c-.72-.37-1.48-.65-2.3-.82s-1.59-.27-2.32-.3c-.73-.03-1.33-.04-1.79-.04v-3.27c.8,0,1.67-.04,2.6-.13s1.82-.28,2.67-.58,1.53-.77,2.06-1.42c.53-.65.79-1.53.79-2.64,0-1.55-.55-2.72-1.66-3.5-1.1-.79-2.42-1.18-3.93-1.18-1.75,0-3.14.45-4.17,1.33-1.03.89-1.69,2.05-1.98,3.48l-3.53-1.03c.52-2.04,1.61-3.68,3.29-4.92s3.83-1.87,6.47-1.87c1.66,0,3.2.24,4.6.71,1.4.47,2.54,1.25,3.4,2.32.86,1.08,1.29,2.5,1.29,4.28,0,1.46-.4,2.78-1.2,3.96-.8,1.18-1.96,2.08-3.48,2.71,2.15.66,3.6,1.64,4.36,2.95s1.14,2.72,1.14,4.24c0,1.92-.49,3.52-1.46,4.79-.97,1.28-2.25,2.23-3.83,2.86-1.58.63-3.28.95-5.12.95Z"/>
</svg>