<?xml version="1.0" encoding="UTF-8"?>
<svg id="Layer_1" data-name="Layer 1" xmlns="http://www.w3.org/2000/svg" viewBox="0 0 90.67 90.66">
  <path d="M45.33,90.66C20.34,90.66,0,70.33,0,45.33S20.34,0,45.33,0s45.33,20.34,45.33,45.33-20.34,45.33-45.33,45.33ZM45.33,7.12C24.27,7.12,7.13,24.26,7.13,45.33s17.14,38.21,38.21,38.21,38.21-17.14,38.21-38.21S66.4,7.12,45.33,7.12Z"/>
  <path d="M62.43,36.94c0,4.94-2.09,9.38-5.43,12.49-3.06,2.86-7.16,4.6-11.66,4.6s-8.61-1.75-11.67-4.6c-3.34-3.12-5.43-7.56-5.43-12.5,0-9.45,7.66-17.1,17.1-17.1s17.1,7.66,17.1,17.1Z"/>
  <path d="M72.63,76.94c-7.32,6.33-16.86,10.16-27.3,10.16s-19.98-3.83-27.3-10.16c1.25-9.46,7.31-17.4,15.63-21.3,3.06,2.85,7.16,4.6,11.67,4.6s8.61-1.75,11.66-4.6c8.33,3.9,14.38,11.85,15.63,21.31Z"/>
  <path d="M45.34,90.66c-10.88,0-21.41-3.92-29.63-11.03C5.72,71.01,0,58.51,0,45.34,0,20.34,20.34,0,45.34,0s45.33,20.34,45.33,45.34c0,13.18-5.72,25.68-15.7,34.3-8.22,7.11-18.74,11.03-29.63,11.03ZM45.34,7.12C24.27,7.12,7.12,24.27,7.12,45.34c0,11.11,4.82,21.64,13.24,28.91,6.93,5.99,15.8,9.29,24.98,9.29s18.04-3.3,24.97-9.29c8.41-7.27,13.24-17.81,13.24-28.91,0-21.07-17.14-38.21-38.2-38.21Z"/>
</svg>