<?xml version="1.0" encoding="utf-8"?>
<svg xmlns="http://www.w3.org/2000/svg" viewBox="0 0 500 500" xmlns:bx="https://boxy-svg.com">
  <defs>
    <bx:export>
      <bx:file format="svg"/>
    </bx:export>
  </defs>
  <path d="M 492.038 97.976 C 489.491 96.278 486.661 95.287 483.689 95.146 L 257.935 0.981 C 253.619 -0.788 248.738 -0.788 244.422 0.981 L 13.503 95.57 C 11.522 95.995 9.683 96.844 7.914 97.976 C 3.032 101.301 0.061 106.819 0.061 112.691 L 0.061 386.625 C 0.061 393.911 4.518 400.42 11.31 403.109 L 213.435 482.133 L 238.055 491.755 C 238.055 491.755 238.479 492.321 238.762 492.462 C 239.541 493.311 240.46 494.019 241.451 494.656 C 244.351 496.566 247.747 497.556 251.143 497.556 C 253.549 497.556 255.954 496.99 258.218 496 L 489.349 394.124 C 495.787 391.294 499.891 384.927 499.891 377.923 L 499.891 112.691 C 499.891 106.748 496.919 101.23 492.038 97.976 Z M 251.072 36.496 L 313.118 62.319 L 131.085 137.523 L 66.068 112.267 L 251.072 36.496 Z M 35.435 374.527 L 35.435 139.08 L 233.456 220.227 L 233.456 451.995 L 35.435 374.527 Z M 251.072 184.075 L 178.839 156.059 L 359.174 81.562 L 432.822 112.267 L 251.072 184.075 Z M 464.517 366.391 L 268.83 452.702 L 268.83 220.156 L 464.517 139.15 L 464.517 366.391 Z" style=""/>
</svg>